<?xml version="1.0" encoding="UTF-8" standalone="no"?>
<svg width="734.131mm" height="306.564mm"
 viewBox="0 0 2081 869"
 xmlns="http://www.w3.org/2000/svg" xmlns:xlink="http://www.w3.org/1999/xlink"  version="1.2" baseProfile="tiny">
<title>Qt SVG Document</title>
<desc>Generated with Qt</desc>
<defs>
</defs>
<g fill="none" stroke="black" stroke-width="1" fill-rule="evenodd" stroke-linecap="square" stroke-linejoin="bevel" >

<g fill="none" stroke="#000000" stroke-opacity="1" stroke-width="1" stroke-linecap="square" stroke-linejoin="bevel" transform="matrix(1,0,0,1,0,0)"
font-family="MS Shell Dlg 2" font-size="8" font-weight="400" font-style="normal" 
>
</g>

<g fill="none" stroke="#646464" stroke-opacity="0.784314" stroke-width="0.5" stroke-linecap="square" stroke-linejoin="bevel" transform="matrix(1.00002,0,0,1.00002,483.687,534.535)"
font-family="MS Shell Dlg 2" font-size="8" font-weight="400" font-style="normal" 
>
<polyline fill="none" vector-effect="none" points="-500,-534.524 -500,334.394 " />
<polyline fill="none" vector-effect="none" points="-475,-534.524 -475,334.394 " />
<polyline fill="none" vector-effect="none" points="-450,-534.524 -450,334.394 " />
<polyline fill="none" vector-effect="none" points="-425,-534.524 -425,334.394 " />
<polyline fill="none" vector-effect="none" points="-400,-534.524 -400,334.394 " />
<polyline fill="none" vector-effect="none" points="-375,-534.524 -375,334.394 " />
<polyline fill="none" vector-effect="none" points="-350,-534.524 -350,334.394 " />
<polyline fill="none" vector-effect="none" points="-325,-534.524 -325,334.394 " />
<polyline fill="none" vector-effect="none" points="-300,-534.524 -300,334.394 " />
<polyline fill="none" vector-effect="none" points="-275,-534.524 -275,334.394 " />
<polyline fill="none" vector-effect="none" points="-250,-534.524 -250,334.394 " />
<polyline fill="none" vector-effect="none" points="-225,-534.524 -225,334.394 " />
<polyline fill="none" vector-effect="none" points="-200,-534.524 -200,334.394 " />
<polyline fill="none" vector-effect="none" points="-175,-534.524 -175,334.394 " />
<polyline fill="none" vector-effect="none" points="-150,-534.524 -150,334.394 " />
<polyline fill="none" vector-effect="none" points="-125,-534.524 -125,334.394 " />
<polyline fill="none" vector-effect="none" points="-100,-534.524 -100,334.394 " />
<polyline fill="none" vector-effect="none" points="-75,-534.524 -75,334.394 " />
<polyline fill="none" vector-effect="none" points="-50,-534.524 -50,334.394 " />
<polyline fill="none" vector-effect="none" points="-25,-534.524 -25,334.394 " />
<polyline fill="none" vector-effect="none" points="0,-534.524 0,334.394 " />
<polyline fill="none" vector-effect="none" points="25,-534.524 25,334.394 " />
<polyline fill="none" vector-effect="none" points="50,-534.524 50,334.394 " />
<polyline fill="none" vector-effect="none" points="75,-534.524 75,334.394 " />
<polyline fill="none" vector-effect="none" points="100,-534.524 100,334.394 " />
<polyline fill="none" vector-effect="none" points="125,-534.524 125,334.394 " />
<polyline fill="none" vector-effect="none" points="150,-534.524 150,334.394 " />
<polyline fill="none" vector-effect="none" points="175,-534.524 175,334.394 " />
<polyline fill="none" vector-effect="none" points="200,-534.524 200,334.394 " />
<polyline fill="none" vector-effect="none" points="225,-534.524 225,334.394 " />
<polyline fill="none" vector-effect="none" points="250,-534.524 250,334.394 " />
<polyline fill="none" vector-effect="none" points="275,-534.524 275,334.394 " />
<polyline fill="none" vector-effect="none" points="300,-534.524 300,334.394 " />
<polyline fill="none" vector-effect="none" points="325,-534.524 325,334.394 " />
<polyline fill="none" vector-effect="none" points="350,-534.524 350,334.394 " />
<polyline fill="none" vector-effect="none" points="375,-534.524 375,334.394 " />
<polyline fill="none" vector-effect="none" points="400,-534.524 400,334.394 " />
<polyline fill="none" vector-effect="none" points="425,-534.524 425,334.394 " />
<polyline fill="none" vector-effect="none" points="450,-534.524 450,334.394 " />
<polyline fill="none" vector-effect="none" points="475,-534.524 475,334.394 " />
<polyline fill="none" vector-effect="none" points="500,-534.524 500,334.394 " />
<polyline fill="none" vector-effect="none" points="525,-534.524 525,334.394 " />
<polyline fill="none" vector-effect="none" points="550,-534.524 550,334.394 " />
<polyline fill="none" vector-effect="none" points="575,-534.524 575,334.394 " />
<polyline fill="none" vector-effect="none" points="600,-534.524 600,334.394 " />
<polyline fill="none" vector-effect="none" points="625,-534.524 625,334.394 " />
<polyline fill="none" vector-effect="none" points="650,-534.524 650,334.394 " />
<polyline fill="none" vector-effect="none" points="675,-534.524 675,334.394 " />
<polyline fill="none" vector-effect="none" points="700,-534.524 700,334.394 " />
<polyline fill="none" vector-effect="none" points="725,-534.524 725,334.394 " />
<polyline fill="none" vector-effect="none" points="750,-534.524 750,334.394 " />
<polyline fill="none" vector-effect="none" points="775,-534.524 775,334.394 " />
<polyline fill="none" vector-effect="none" points="800,-534.524 800,334.394 " />
<polyline fill="none" vector-effect="none" points="825,-534.524 825,334.394 " />
<polyline fill="none" vector-effect="none" points="850,-534.524 850,334.394 " />
<polyline fill="none" vector-effect="none" points="875,-534.524 875,334.394 " />
<polyline fill="none" vector-effect="none" points="900,-534.524 900,334.394 " />
<polyline fill="none" vector-effect="none" points="925,-534.524 925,334.394 " />
<polyline fill="none" vector-effect="none" points="950,-534.524 950,334.394 " />
<polyline fill="none" vector-effect="none" points="975,-534.524 975,334.394 " />
<polyline fill="none" vector-effect="none" points="1000,-534.524 1000,334.394 " />
<polyline fill="none" vector-effect="none" points="1025,-534.524 1025,334.394 " />
<polyline fill="none" vector-effect="none" points="1050,-534.524 1050,334.394 " />
<polyline fill="none" vector-effect="none" points="1075,-534.524 1075,334.394 " />
<polyline fill="none" vector-effect="none" points="1100,-534.524 1100,334.394 " />
<polyline fill="none" vector-effect="none" points="1125,-534.524 1125,334.394 " />
<polyline fill="none" vector-effect="none" points="1150,-534.524 1150,334.394 " />
<polyline fill="none" vector-effect="none" points="1175,-534.524 1175,334.394 " />
<polyline fill="none" vector-effect="none" points="1200,-534.524 1200,334.394 " />
<polyline fill="none" vector-effect="none" points="1225,-534.524 1225,334.394 " />
<polyline fill="none" vector-effect="none" points="1250,-534.524 1250,334.394 " />
<polyline fill="none" vector-effect="none" points="1275,-534.524 1275,334.394 " />
<polyline fill="none" vector-effect="none" points="1300,-534.524 1300,334.394 " />
<polyline fill="none" vector-effect="none" points="1325,-534.524 1325,334.394 " />
<polyline fill="none" vector-effect="none" points="1350,-534.524 1350,334.394 " />
<polyline fill="none" vector-effect="none" points="1375,-534.524 1375,334.394 " />
<polyline fill="none" vector-effect="none" points="1400,-534.524 1400,334.394 " />
<polyline fill="none" vector-effect="none" points="1425,-534.524 1425,334.394 " />
<polyline fill="none" vector-effect="none" points="1450,-534.524 1450,334.394 " />
<polyline fill="none" vector-effect="none" points="1475,-534.524 1475,334.394 " />
<polyline fill="none" vector-effect="none" points="1500,-534.524 1500,334.394 " />
<polyline fill="none" vector-effect="none" points="1525,-534.524 1525,334.394 " />
<polyline fill="none" vector-effect="none" points="1550,-534.524 1550,334.394 " />
<polyline fill="none" vector-effect="none" points="1575,-534.524 1575,334.394 " />
<polyline fill="none" vector-effect="none" points="-483.677,-550 1597.28,-550 " />
<polyline fill="none" vector-effect="none" points="-483.677,-525 1597.28,-525 " />
<polyline fill="none" vector-effect="none" points="-483.677,-500 1597.28,-500 " />
<polyline fill="none" vector-effect="none" points="-483.677,-475 1597.28,-475 " />
<polyline fill="none" vector-effect="none" points="-483.677,-450 1597.28,-450 " />
<polyline fill="none" vector-effect="none" points="-483.677,-425 1597.28,-425 " />
<polyline fill="none" vector-effect="none" points="-483.677,-400 1597.28,-400 " />
<polyline fill="none" vector-effect="none" points="-483.677,-375 1597.28,-375 " />
<polyline fill="none" vector-effect="none" points="-483.677,-350 1597.28,-350 " />
<polyline fill="none" vector-effect="none" points="-483.677,-325 1597.28,-325 " />
<polyline fill="none" vector-effect="none" points="-483.677,-300 1597.28,-300 " />
<polyline fill="none" vector-effect="none" points="-483.677,-275 1597.28,-275 " />
<polyline fill="none" vector-effect="none" points="-483.677,-250 1597.28,-250 " />
<polyline fill="none" vector-effect="none" points="-483.677,-225 1597.28,-225 " />
<polyline fill="none" vector-effect="none" points="-483.677,-200 1597.28,-200 " />
<polyline fill="none" vector-effect="none" points="-483.677,-175 1597.28,-175 " />
<polyline fill="none" vector-effect="none" points="-483.677,-150 1597.28,-150 " />
<polyline fill="none" vector-effect="none" points="-483.677,-125 1597.28,-125 " />
<polyline fill="none" vector-effect="none" points="-483.677,-100 1597.28,-100 " />
<polyline fill="none" vector-effect="none" points="-483.677,-75 1597.28,-75 " />
<polyline fill="none" vector-effect="none" points="-483.677,-50 1597.28,-50 " />
<polyline fill="none" vector-effect="none" points="-483.677,-25 1597.28,-25 " />
<polyline fill="none" vector-effect="none" points="-483.677,0 1597.28,0 " />
<polyline fill="none" vector-effect="none" points="-483.677,25 1597.28,25 " />
<polyline fill="none" vector-effect="none" points="-483.677,50 1597.28,50 " />
<polyline fill="none" vector-effect="none" points="-483.677,75 1597.28,75 " />
<polyline fill="none" vector-effect="none" points="-483.677,100 1597.28,100 " />
<polyline fill="none" vector-effect="none" points="-483.677,125 1597.28,125 " />
<polyline fill="none" vector-effect="none" points="-483.677,150 1597.28,150 " />
<polyline fill="none" vector-effect="none" points="-483.677,175 1597.28,175 " />
<polyline fill="none" vector-effect="none" points="-483.677,200 1597.28,200 " />
<polyline fill="none" vector-effect="none" points="-483.677,225 1597.28,225 " />
<polyline fill="none" vector-effect="none" points="-483.677,250 1597.28,250 " />
<polyline fill="none" vector-effect="none" points="-483.677,275 1597.28,275 " />
<polyline fill="none" vector-effect="none" points="-483.677,300 1597.28,300 " />
<polyline fill="none" vector-effect="none" points="-483.677,325 1597.28,325 " />
</g>

<g fill="none" stroke="#646464" stroke-opacity="0.784314" stroke-width="0.5" stroke-linecap="square" stroke-linejoin="bevel" transform="matrix(1.00002,0,0,1.00002,83.6792,384.532)"
font-family="MS Shell Dlg 2" font-size="8" font-weight="400" font-style="normal" 
>
</g>

<g fill="none" stroke="#f90606" stroke-opacity="0.946304" stroke-width="3" stroke-linecap="round" stroke-linejoin="round" transform="matrix(1.00002,0,0,1.00002,83.6792,384.532)"
font-family="MS Shell Dlg 2" font-size="8" font-weight="400" font-style="normal" 
>
<polyline fill="none" vector-effect="none" points="0,0 226.108,0 " />
</g>

<g fill="none" stroke="#646464" stroke-opacity="0.784314" stroke-width="0.5" stroke-linecap="square" stroke-linejoin="bevel" transform="matrix(1.00002,0,0,1.00002,83.6792,384.532)"
font-family="MS Shell Dlg 2" font-size="8" font-weight="400" font-style="normal" 
>
</g>

<g fill="none" stroke="#646464" stroke-opacity="0.784314" stroke-width="0.5" stroke-linecap="square" stroke-linejoin="bevel" transform="matrix(1.00002,0,0,1.00002,83.6792,409.532)"
font-family="MS Shell Dlg 2" font-size="8" font-weight="400" font-style="normal" 
>
</g>

<g fill="none" stroke="#f90606" stroke-opacity="0.946304" stroke-width="3" stroke-linecap="round" stroke-linejoin="round" transform="matrix(1.00002,0,0,1.00002,83.6792,409.532)"
font-family="MS Shell Dlg 2" font-size="8" font-weight="400" font-style="normal" 
>
<polyline fill="none" vector-effect="none" points="0,0 224.228,0 " />
</g>

<g fill="none" stroke="#646464" stroke-opacity="0.784314" stroke-width="0.5" stroke-linecap="square" stroke-linejoin="bevel" transform="matrix(1.00002,0,0,1.00002,83.6792,409.532)"
font-family="MS Shell Dlg 2" font-size="8" font-weight="400" font-style="normal" 
>
</g>

<g fill="none" stroke="#646464" stroke-opacity="0.784314" stroke-width="0.5" stroke-linecap="square" stroke-linejoin="bevel" transform="matrix(1.00002,0,0,1.00002,83.6792,459.533)"
font-family="MS Shell Dlg 2" font-size="8" font-weight="400" font-style="normal" 
>
</g>

<g fill="none" stroke="#f90606" stroke-opacity="0.946304" stroke-width="3" stroke-linecap="round" stroke-linejoin="round" transform="matrix(1.00002,0,0,1.00002,83.6792,459.533)"
font-family="MS Shell Dlg 2" font-size="8" font-weight="400" font-style="normal" 
>
<polyline fill="none" vector-effect="none" points="0,0 224.228,0 " />
</g>

<g fill="none" stroke="#646464" stroke-opacity="0.784314" stroke-width="0.5" stroke-linecap="square" stroke-linejoin="bevel" transform="matrix(1.00002,0,0,1.00002,83.6792,459.533)"
font-family="MS Shell Dlg 2" font-size="8" font-weight="400" font-style="normal" 
>
</g>

<g fill="none" stroke="#646464" stroke-opacity="0.784314" stroke-width="0.5" stroke-linecap="square" stroke-linejoin="bevel" transform="matrix(1.00002,0,0,1.00002,83.6792,434.533)"
font-family="MS Shell Dlg 2" font-size="8" font-weight="400" font-style="normal" 
>
</g>

<g fill="none" stroke="#f90606" stroke-opacity="0.946304" stroke-width="3" stroke-linecap="round" stroke-linejoin="round" transform="matrix(1.00002,0,0,1.00002,83.6792,434.533)"
font-family="MS Shell Dlg 2" font-size="8" font-weight="400" font-style="normal" 
>
<polyline fill="none" vector-effect="none" points="0,0 223.602,0 " />
</g>

<g fill="none" stroke="#646464" stroke-opacity="0.784314" stroke-width="0.5" stroke-linecap="square" stroke-linejoin="bevel" transform="matrix(1.00002,0,0,1.00002,83.6792,434.533)"
font-family="MS Shell Dlg 2" font-size="8" font-weight="400" font-style="normal" 
>
</g>

<g fill="none" stroke="#646464" stroke-opacity="0.784314" stroke-width="0.5" stroke-linecap="square" stroke-linejoin="bevel" transform="matrix(1.00002,0,0,1.00002,83.6792,484.534)"
font-family="MS Shell Dlg 2" font-size="8" font-weight="400" font-style="normal" 
>
</g>

<g fill="none" stroke="#f90606" stroke-opacity="0.946304" stroke-width="3" stroke-linecap="round" stroke-linejoin="round" transform="matrix(1.00002,0,0,1.00002,83.6792,484.534)"
font-family="MS Shell Dlg 2" font-size="8" font-weight="400" font-style="normal" 
>
<polyline fill="none" vector-effect="none" points="0,0 226.108,0 " />
</g>

<g fill="none" stroke="#646464" stroke-opacity="0.784314" stroke-width="0.5" stroke-linecap="square" stroke-linejoin="bevel" transform="matrix(1.00002,0,0,1.00002,83.6792,484.534)"
font-family="MS Shell Dlg 2" font-size="8" font-weight="400" font-style="normal" 
>
</g>

<g fill="none" stroke="#646464" stroke-opacity="0.784314" stroke-width="0.5" stroke-linecap="square" stroke-linejoin="bevel" transform="matrix(1.00002,0,0,1.00002,309.792,484.534)"
font-family="MS Shell Dlg 2" font-size="8" font-weight="400" font-style="normal" 
>
</g>

<g fill="none" stroke="#f90606" stroke-opacity="0.946304" stroke-width="3" stroke-linecap="round" stroke-linejoin="round" transform="matrix(1.00002,0,0,1.00002,309.792,484.534)"
font-family="MS Shell Dlg 2" font-size="8" font-weight="400" font-style="normal" 
>
<polyline fill="none" vector-effect="none" points="0.999429,-0.0337774 47.9434,-1.62033 " />
</g>

<g fill="none" stroke="#646464" stroke-opacity="0.784314" stroke-width="0.5" stroke-linecap="square" stroke-linejoin="bevel" transform="matrix(1.00002,0,0,1.00002,309.792,484.534)"
font-family="MS Shell Dlg 2" font-size="8" font-weight="400" font-style="normal" 
>
</g>

<g fill="none" stroke="#646464" stroke-opacity="0.784314" stroke-width="0.5" stroke-linecap="square" stroke-linejoin="bevel" transform="matrix(1.00002,0,0,1.00002,307.286,434.533)"
font-family="MS Shell Dlg 2" font-size="8" font-weight="400" font-style="normal" 
>
</g>

<g fill="none" stroke="#f90606" stroke-opacity="0.946304" stroke-width="3" stroke-linecap="round" stroke-linejoin="round" transform="matrix(1.00002,0,0,1.00002,307.286,434.533)"
font-family="MS Shell Dlg 2" font-size="8" font-weight="400" font-style="normal" 
>
<polyline fill="none" vector-effect="none" points="1,0 52.7958,0 " />
</g>

<g fill="none" stroke="#646464" stroke-opacity="0.784314" stroke-width="0.5" stroke-linecap="square" stroke-linejoin="bevel" transform="matrix(1.00002,0,0,1.00002,307.286,434.533)"
font-family="MS Shell Dlg 2" font-size="8" font-weight="400" font-style="normal" 
>
</g>

<g fill="none" stroke="#646464" stroke-opacity="0.784314" stroke-width="0.5" stroke-linecap="square" stroke-linejoin="bevel" transform="matrix(1.00002,0,0,1.00002,307.911,459.533)"
font-family="MS Shell Dlg 2" font-size="8" font-weight="400" font-style="normal" 
>
</g>

<g fill="none" stroke="#f90606" stroke-opacity="0.946304" stroke-width="3" stroke-linecap="round" stroke-linejoin="round" transform="matrix(1.00002,0,0,1.00002,307.911,459.533)"
font-family="MS Shell Dlg 2" font-size="8" font-weight="400" font-style="normal" 
>
<polyline fill="none" vector-effect="none" points="0.999858,-0.0168465 51.5878,-0.869198 " />
</g>

<g fill="none" stroke="#646464" stroke-opacity="0.784314" stroke-width="0.5" stroke-linecap="square" stroke-linejoin="bevel" transform="matrix(1.00002,0,0,1.00002,307.911,459.533)"
font-family="MS Shell Dlg 2" font-size="8" font-weight="400" font-style="normal" 
>
</g>

<g fill="none" stroke="#646464" stroke-opacity="0.784314" stroke-width="0.5" stroke-linecap="square" stroke-linejoin="bevel" transform="matrix(1.00002,0,0,1.00002,307.911,409.532)"
font-family="MS Shell Dlg 2" font-size="8" font-weight="400" font-style="normal" 
>
</g>

<g fill="none" stroke="#f90606" stroke-opacity="0.946304" stroke-width="3" stroke-linecap="round" stroke-linejoin="round" transform="matrix(1.00002,0,0,1.00002,307.911,409.532)"
font-family="MS Shell Dlg 2" font-size="8" font-weight="400" font-style="normal" 
>
<polyline fill="none" vector-effect="none" points="0.999858,0.0168465 51.5878,0.869198 " />
</g>

<g fill="none" stroke="#646464" stroke-opacity="0.784314" stroke-width="0.5" stroke-linecap="square" stroke-linejoin="bevel" transform="matrix(1.00002,0,0,1.00002,307.911,409.532)"
font-family="MS Shell Dlg 2" font-size="8" font-weight="400" font-style="normal" 
>
</g>

<g fill="none" stroke="#646464" stroke-opacity="0.784314" stroke-width="0.5" stroke-linecap="square" stroke-linejoin="bevel" transform="matrix(1.00002,0,0,1.00002,309.792,384.532)"
font-family="MS Shell Dlg 2" font-size="8" font-weight="400" font-style="normal" 
>
</g>

<g fill="none" stroke="#f90606" stroke-opacity="0.946304" stroke-width="3" stroke-linecap="round" stroke-linejoin="round" transform="matrix(1.00002,0,0,1.00002,309.792,384.532)"
font-family="MS Shell Dlg 2" font-size="8" font-weight="400" font-style="normal" 
>
<polyline fill="none" vector-effect="none" points="0.999429,0.0337774 47.9434,1.62033 " />
</g>

<g fill="none" stroke="#646464" stroke-opacity="0.784314" stroke-width="0.5" stroke-linecap="square" stroke-linejoin="bevel" transform="matrix(1.00002,0,0,1.00002,309.792,384.532)"
font-family="MS Shell Dlg 2" font-size="8" font-weight="400" font-style="normal" 
>
</g>

<g fill="none" stroke="#646464" stroke-opacity="0.784314" stroke-width="0.5" stroke-linecap="square" stroke-linejoin="bevel" transform="matrix(1.00002,0,0,1.00002,357.737,386.152)"
font-family="MS Shell Dlg 2" font-size="8" font-weight="400" font-style="normal" 
>
</g>

<g fill="none" stroke="#f90606" stroke-opacity="0.946304" stroke-width="3" stroke-linecap="round" stroke-linejoin="round" transform="matrix(1.00002,0,0,1.00002,357.737,386.152)"
font-family="MS Shell Dlg 2" font-size="8" font-weight="400" font-style="normal" 
>
<polyline fill="none" vector-effect="none" points="0.99492,0.100667 951.853,96.3091 " />
</g>

<g fill="none" stroke="#646464" stroke-opacity="0.784314" stroke-width="0.5" stroke-linecap="square" stroke-linejoin="bevel" transform="matrix(1.00002,0,0,1.00002,357.737,386.152)"
font-family="MS Shell Dlg 2" font-size="8" font-weight="400" font-style="normal" 
>
</g>

<g fill="none" stroke="#646464" stroke-opacity="0.784314" stroke-width="0.5" stroke-linecap="square" stroke-linejoin="bevel" transform="matrix(1.00002,0,0,1.00002,359.5,410.402)"
font-family="MS Shell Dlg 2" font-size="8" font-weight="400" font-style="normal" 
>
</g>

<g fill="none" stroke="#f90606" stroke-opacity="0.946304" stroke-width="3" stroke-linecap="round" stroke-linejoin="round" transform="matrix(1.00002,0,0,1.00002,359.5,410.402)"
font-family="MS Shell Dlg 2" font-size="8" font-weight="400" font-style="normal" 
>
<polyline fill="none" vector-effect="none" points="0.998751,0.0499676 948.331,47.4451 " />
</g>

<g fill="none" stroke="#646464" stroke-opacity="0.784314" stroke-width="0.5" stroke-linecap="square" stroke-linejoin="bevel" transform="matrix(1.00002,0,0,1.00002,359.5,410.402)"
font-family="MS Shell Dlg 2" font-size="8" font-weight="400" font-style="normal" 
>
</g>

<g fill="none" stroke="#646464" stroke-opacity="0.784314" stroke-width="0.5" stroke-linecap="square" stroke-linejoin="bevel" transform="matrix(1.00002,0,0,1.00002,359.5,458.664)"
font-family="MS Shell Dlg 2" font-size="8" font-weight="400" font-style="normal" 
>
</g>

<g fill="none" stroke="#f90606" stroke-opacity="0.946304" stroke-width="3" stroke-linecap="round" stroke-linejoin="round" transform="matrix(1.00002,0,0,1.00002,359.5,458.664)"
font-family="MS Shell Dlg 2" font-size="8" font-weight="400" font-style="normal" 
>
<polyline fill="none" vector-effect="none" points="0.998751,-0.0499676 948.331,-47.4451 " />
</g>

<g fill="none" stroke="#646464" stroke-opacity="0.784314" stroke-width="0.5" stroke-linecap="square" stroke-linejoin="bevel" transform="matrix(1.00002,0,0,1.00002,359.5,458.664)"
font-family="MS Shell Dlg 2" font-size="8" font-weight="400" font-style="normal" 
>
</g>

<g fill="none" stroke="#646464" stroke-opacity="0.784314" stroke-width="0.5" stroke-linecap="square" stroke-linejoin="bevel" transform="matrix(1.00002,0,0,1.00002,360.083,434.533)"
font-family="MS Shell Dlg 2" font-size="8" font-weight="400" font-style="normal" 
>
</g>

<g fill="none" stroke="#f90606" stroke-opacity="0.946304" stroke-width="3" stroke-linecap="round" stroke-linejoin="round" transform="matrix(1.00002,0,0,1.00002,360.083,434.533)"
font-family="MS Shell Dlg 2" font-size="8" font-weight="400" font-style="normal" 
>
<polyline fill="none" vector-effect="none" points="1,0 947.204,0 " />
</g>

<g fill="none" stroke="#646464" stroke-opacity="0.784314" stroke-width="0.5" stroke-linecap="square" stroke-linejoin="bevel" transform="matrix(1.00002,0,0,1.00002,360.083,434.533)"
font-family="MS Shell Dlg 2" font-size="8" font-weight="400" font-style="normal" 
>
</g>

<g fill="none" stroke="#646464" stroke-opacity="0.784314" stroke-width="0.5" stroke-linecap="square" stroke-linejoin="bevel" transform="matrix(1.00002,0,0,1.00002,357.737,482.914)"
font-family="MS Shell Dlg 2" font-size="8" font-weight="400" font-style="normal" 
>
</g>

<g fill="none" stroke="#f90606" stroke-opacity="0.946304" stroke-width="3" stroke-linecap="round" stroke-linejoin="round" transform="matrix(1.00002,0,0,1.00002,357.737,482.914)"
font-family="MS Shell Dlg 2" font-size="8" font-weight="400" font-style="normal" 
>
<polyline fill="none" vector-effect="none" points="0.99492,-0.100667 951.853,-96.3091 " />
</g>

<g fill="none" stroke="#646464" stroke-opacity="0.784314" stroke-width="0.5" stroke-linecap="square" stroke-linejoin="bevel" transform="matrix(1.00002,0,0,1.00002,357.737,482.914)"
font-family="MS Shell Dlg 2" font-size="8" font-weight="400" font-style="normal" 
>
</g>

<g fill="none" stroke="#646464" stroke-opacity="0.784314" stroke-width="0.5" stroke-linecap="square" stroke-linejoin="bevel" transform="matrix(1.00002,0,0,1.00002,1309.61,386.602)"
font-family="MS Shell Dlg 2" font-size="8" font-weight="400" font-style="normal" 
>
</g>

<g fill="none" stroke="#f90606" stroke-opacity="0.946304" stroke-width="3" stroke-linecap="round" stroke-linejoin="round" transform="matrix(1.00002,0,0,1.00002,1309.61,386.602)"
font-family="MS Shell Dlg 2" font-size="8" font-weight="400" font-style="normal" 
>
<polyline fill="none" vector-effect="none" points="0.999419,-0.0340883 48.0302,-1.63822 " />
</g>

<g fill="none" stroke="#646464" stroke-opacity="0.784314" stroke-width="0.5" stroke-linecap="square" stroke-linejoin="bevel" transform="matrix(1.00002,0,0,1.00002,1309.61,386.602)"
font-family="MS Shell Dlg 2" font-size="8" font-weight="400" font-style="normal" 
>
</g>

<g fill="none" stroke="#646464" stroke-opacity="0.784314" stroke-width="0.5" stroke-linecap="square" stroke-linejoin="bevel" transform="matrix(1.00002,0,0,1.00002,1307.31,434.533)"
font-family="MS Shell Dlg 2" font-size="8" font-weight="400" font-style="normal" 
>
</g>

<g fill="none" stroke="#f90606" stroke-opacity="0.946304" stroke-width="3" stroke-linecap="round" stroke-linejoin="round" transform="matrix(1.00002,0,0,1.00002,1307.31,434.533)"
font-family="MS Shell Dlg 2" font-size="8" font-weight="400" font-style="normal" 
>
<polyline fill="none" vector-effect="none" points="1,0 52.7958,0 " />
</g>

<g fill="none" stroke="#646464" stroke-opacity="0.784314" stroke-width="0.5" stroke-linecap="square" stroke-linejoin="bevel" transform="matrix(1.00002,0,0,1.00002,1307.31,434.533)"
font-family="MS Shell Dlg 2" font-size="8" font-weight="400" font-style="normal" 
>
</g>

<g fill="none" stroke="#646464" stroke-opacity="0.784314" stroke-width="0.5" stroke-linecap="square" stroke-linejoin="bevel" transform="matrix(1.00002,0,0,1.00002,1307.85,411.218)"
font-family="MS Shell Dlg 2" font-size="8" font-weight="400" font-style="normal" 
>
</g>

<g fill="none" stroke="#f90606" stroke-opacity="0.946304" stroke-width="3" stroke-linecap="round" stroke-linejoin="round" transform="matrix(1.00002,0,0,1.00002,1307.85,411.218)"
font-family="MS Shell Dlg 2" font-size="8" font-weight="400" font-style="normal" 
>
<polyline fill="none" vector-effect="none" points="0.999849,-0.0173997 51.6653,-0.899097 " />
</g>

<g fill="none" stroke="#646464" stroke-opacity="0.784314" stroke-width="0.5" stroke-linecap="square" stroke-linejoin="bevel" transform="matrix(1.00002,0,0,1.00002,1307.85,411.218)"
font-family="MS Shell Dlg 2" font-size="8" font-weight="400" font-style="normal" 
>
</g>

<g fill="none" stroke="#646464" stroke-opacity="0.784314" stroke-width="0.5" stroke-linecap="square" stroke-linejoin="bevel" transform="matrix(1.00002,0,0,1.00002,1307.85,457.848)"
font-family="MS Shell Dlg 2" font-size="8" font-weight="400" font-style="normal" 
>
</g>

<g fill="none" stroke="#f90606" stroke-opacity="0.946304" stroke-width="3" stroke-linecap="round" stroke-linejoin="round" transform="matrix(1.00002,0,0,1.00002,1307.85,457.848)"
font-family="MS Shell Dlg 2" font-size="8" font-weight="400" font-style="normal" 
>
<polyline fill="none" vector-effect="none" points="0.999849,0.0173997 51.6653,0.899097 " />
</g>

<g fill="none" stroke="#646464" stroke-opacity="0.784314" stroke-width="0.5" stroke-linecap="square" stroke-linejoin="bevel" transform="matrix(1.00002,0,0,1.00002,1307.85,457.848)"
font-family="MS Shell Dlg 2" font-size="8" font-weight="400" font-style="normal" 
>
</g>

<g fill="none" stroke="#646464" stroke-opacity="0.784314" stroke-width="0.5" stroke-linecap="square" stroke-linejoin="bevel" transform="matrix(1.00002,0,0,1.00002,1309.61,482.463)"
font-family="MS Shell Dlg 2" font-size="8" font-weight="400" font-style="normal" 
>
</g>

<g fill="none" stroke="#f90606" stroke-opacity="0.946304" stroke-width="3" stroke-linecap="round" stroke-linejoin="round" transform="matrix(1.00002,0,0,1.00002,1309.61,482.463)"
font-family="MS Shell Dlg 2" font-size="8" font-weight="400" font-style="normal" 
>
<polyline fill="none" vector-effect="none" points="0.999419,0.0340883 48.0302,1.63822 " />
</g>

<g fill="none" stroke="#646464" stroke-opacity="0.784314" stroke-width="0.5" stroke-linecap="square" stroke-linejoin="bevel" transform="matrix(1.00002,0,0,1.00002,1309.61,482.463)"
font-family="MS Shell Dlg 2" font-size="8" font-weight="400" font-style="normal" 
>
</g>

<g fill="none" stroke="#646464" stroke-opacity="0.784314" stroke-width="0.5" stroke-linecap="square" stroke-linejoin="bevel" transform="matrix(1.00002,0,0,1.00002,1357.64,484.102)"
font-family="MS Shell Dlg 2" font-size="8" font-weight="400" font-style="normal" 
>
</g>

<g fill="none" stroke="#f90606" stroke-opacity="0.946304" stroke-width="3" stroke-linecap="round" stroke-linejoin="round" transform="matrix(1.00002,0,0,1.00002,1357.64,484.102)"
font-family="MS Shell Dlg 2" font-size="8" font-weight="400" font-style="normal" 
>
<polyline fill="none" vector-effect="none" points="1,0.000914971 386.065,0.353238 " />
</g>

<g fill="none" stroke="#646464" stroke-opacity="0.784314" stroke-width="0.5" stroke-linecap="square" stroke-linejoin="bevel" transform="matrix(1.00002,0,0,1.00002,1357.64,484.102)"
font-family="MS Shell Dlg 2" font-size="8" font-weight="400" font-style="normal" 
>
</g>

<g fill="none" stroke="#646464" stroke-opacity="0.784314" stroke-width="0.5" stroke-linecap="square" stroke-linejoin="bevel" transform="matrix(1.00002,0,0,1.00002,1359.52,458.747)"
font-family="MS Shell Dlg 2" font-size="8" font-weight="400" font-style="normal" 
>
</g>

<g fill="none" stroke="#f90606" stroke-opacity="0.946304" stroke-width="3" stroke-linecap="round" stroke-linejoin="round" transform="matrix(1.00002,0,0,1.00002,1359.52,458.747)"
font-family="MS Shell Dlg 2" font-size="8" font-weight="400" font-style="normal" 
>
<polyline fill="none" vector-effect="none" points="0.999999,0.0016355 384.189,0.62834 " />
</g>

<g fill="none" stroke="#646464" stroke-opacity="0.784314" stroke-width="0.5" stroke-linecap="square" stroke-linejoin="bevel" transform="matrix(1.00002,0,0,1.00002,1359.52,458.747)"
font-family="MS Shell Dlg 2" font-size="8" font-weight="400" font-style="normal" 
>
</g>

<g fill="none" stroke="#646464" stroke-opacity="0.784314" stroke-width="0.5" stroke-linecap="square" stroke-linejoin="bevel" transform="matrix(1.00002,0,0,1.00002,1359.52,410.319)"
font-family="MS Shell Dlg 2" font-size="8" font-weight="400" font-style="normal" 
>
</g>

<g fill="none" stroke="#f90606" stroke-opacity="0.946304" stroke-width="3" stroke-linecap="round" stroke-linejoin="round" transform="matrix(1.00002,0,0,1.00002,1359.52,410.319)"
font-family="MS Shell Dlg 2" font-size="8" font-weight="400" font-style="normal" 
>
<polyline fill="none" vector-effect="none" points="0.999999,-0.0016355 384.189,-0.62834 " />
</g>

<g fill="none" stroke="#646464" stroke-opacity="0.784314" stroke-width="0.5" stroke-linecap="square" stroke-linejoin="bevel" transform="matrix(1.00002,0,0,1.00002,1359.52,410.319)"
font-family="MS Shell Dlg 2" font-size="8" font-weight="400" font-style="normal" 
>
</g>

<g fill="none" stroke="#646464" stroke-opacity="0.784314" stroke-width="0.5" stroke-linecap="square" stroke-linejoin="bevel" transform="matrix(1.00002,0,0,1.00002,1360.1,434.533)"
font-family="MS Shell Dlg 2" font-size="8" font-weight="400" font-style="normal" 
>
</g>

<g fill="none" stroke="#f90606" stroke-opacity="0.946304" stroke-width="3" stroke-linecap="round" stroke-linejoin="round" transform="matrix(1.00002,0,0,1.00002,1360.1,434.533)"
font-family="MS Shell Dlg 2" font-size="8" font-weight="400" font-style="normal" 
>
<polyline fill="none" vector-effect="none" points="1,0 383.602,0 " />
</g>

<g fill="none" stroke="#646464" stroke-opacity="0.784314" stroke-width="0.5" stroke-linecap="square" stroke-linejoin="bevel" transform="matrix(1.00002,0,0,1.00002,1360.1,434.533)"
font-family="MS Shell Dlg 2" font-size="8" font-weight="400" font-style="normal" 
>
</g>

<g fill="none" stroke="#646464" stroke-opacity="0.784314" stroke-width="0.5" stroke-linecap="square" stroke-linejoin="bevel" transform="matrix(1.00002,0,0,1.00002,1357.64,384.964)"
font-family="MS Shell Dlg 2" font-size="8" font-weight="400" font-style="normal" 
>
</g>

<g fill="none" stroke="#f90606" stroke-opacity="0.946304" stroke-width="3" stroke-linecap="round" stroke-linejoin="round" transform="matrix(1.00002,0,0,1.00002,1357.64,384.964)"
font-family="MS Shell Dlg 2" font-size="8" font-weight="400" font-style="normal" 
>
<polyline fill="none" vector-effect="none" points="1,-0.000914971 386.065,-0.353238 " />
</g>

<g fill="none" stroke="#646464" stroke-opacity="0.784314" stroke-width="0.5" stroke-linecap="square" stroke-linejoin="bevel" transform="matrix(1.00002,0,0,1.00002,1357.64,384.964)"
font-family="MS Shell Dlg 2" font-size="8" font-weight="400" font-style="normal" 
>
</g>

<g fill="none" stroke="#646464" stroke-opacity="0.784314" stroke-width="0.5" stroke-linecap="square" stroke-linejoin="bevel" transform="matrix(1.00002,0,0,1.00002,333.684,434.533)"
font-family="MS Shell Dlg 2" font-size="8" font-weight="400" font-style="normal" 
>
</g>

<g fill="none" stroke="#000000" stroke-opacity="1" stroke-width="2" stroke-linecap="round" stroke-linejoin="round" transform="matrix(1.00002,0,0,1.00002,333.684,434.533)"
font-family="MS Shell Dlg 2" font-size="8" font-weight="400" font-style="normal" 
>
<path vector-effect="none" fill-rule="evenodd" d="M0,-127 L10,-127 L10.0625,-127.244 C20.7339,-86.5264 26.3979,-43.9246 26.3979,0 C26.3979,43.9714 20.7218,86.6171 10.0965,127.115 L0,127"/>
<path vector-effect="none" fill-rule="evenodd" d="M0,-127 L-10,-127 L-10.0625,-127.244 C-20.7339,-86.5264 -26.3979,-43.9246 -26.3979,0 C-26.3979,43.9714 -20.7218,86.6171 -10.0965,127.115 L0,127"/>
</g>

<g fill="#000000" fill-opacity="0.0980392" stroke="none" transform="matrix(1.00002,0,0,1.00002,333.684,434.533)"
font-family="MS Shell Dlg 2" font-size="8" font-weight="400" font-style="normal" 
>
<path vector-effect="none" fill-rule="evenodd" d="M0,-127 L10,-127 L10.0625,-127.244 C20.7339,-86.5264 26.3979,-43.9246 26.3979,0 C26.3979,43.9714 20.7218,86.6171 10.0965,127.115 L0,127 L0,-127 L-10,-127 L-10.0625,-127.244 C-20.7339,-86.5264 -26.3979,-43.9246 -26.3979,0 C-26.3979,43.9714 -20.7218,86.6171 -10.0965,127.115 L0,127"/>
</g>

<g fill="none" stroke="#646464" stroke-opacity="0.784314" stroke-width="0.5" stroke-linecap="square" stroke-linejoin="bevel" transform="matrix(1.00002,0,0,1.00002,333.684,434.533)"
font-family="MS Shell Dlg 2" font-size="8" font-weight="400" font-style="normal" 
>
</g>

<g fill="none" stroke="#646464" stroke-opacity="0.784314" stroke-width="0.5" stroke-linecap="square" stroke-linejoin="bevel" transform="matrix(1.00002,0,0,1.00002,1333.7,434.533)"
font-family="MS Shell Dlg 2" font-size="8" font-weight="400" font-style="normal" 
>
</g>

<g fill="none" stroke="#000000" stroke-opacity="1" stroke-width="2" stroke-linecap="round" stroke-linejoin="round" transform="matrix(1.00002,0,0,1.00002,1333.7,434.533)"
font-family="MS Shell Dlg 2" font-size="8" font-weight="400" font-style="normal" 
>
<path vector-effect="none" fill-rule="evenodd" d="M0,-127 L10,-127 L10.0625,-127.244 C20.7339,-86.5264 26.3979,-43.9246 26.3979,0 C26.3979,43.9714 20.7218,86.6171 10.0965,127.115 L0,127"/>
<path vector-effect="none" fill-rule="evenodd" d="M0,-127 L-10,-127 L-10.0625,-127.244 C-20.7339,-86.5264 -26.3979,-43.9246 -26.3979,0 C-26.3979,43.9714 -20.7218,86.6171 -10.0965,127.115 L0,127"/>
</g>

<g fill="#000000" fill-opacity="0.0980392" stroke="none" transform="matrix(1.00002,0,0,1.00002,1333.7,434.533)"
font-family="MS Shell Dlg 2" font-size="8" font-weight="400" font-style="normal" 
>
<path vector-effect="none" fill-rule="evenodd" d="M0,-127 L10,-127 L10.0625,-127.244 C20.7339,-86.5264 26.3979,-43.9246 26.3979,0 C26.3979,43.9714 20.7218,86.6171 10.0965,127.115 L0,127 L0,-127 L-10,-127 L-10.0625,-127.244 C-20.7339,-86.5264 -26.3979,-43.9246 -26.3979,0 C-26.3979,43.9714 -20.7218,86.6171 -10.0965,127.115 L0,127"/>
</g>

<g fill="none" stroke="#646464" stroke-opacity="0.784314" stroke-width="0.5" stroke-linecap="square" stroke-linejoin="bevel" transform="matrix(1.00002,0,0,1.00002,1333.7,434.533)"
font-family="MS Shell Dlg 2" font-size="8" font-weight="400" font-style="normal" 
>
</g>

<g fill="none" stroke="#646464" stroke-opacity="0.784314" stroke-width="0.5" stroke-linecap="square" stroke-linejoin="bevel" transform="matrix(1.00002,0,0,1.00002,1758.71,434.533)"
font-family="MS Shell Dlg 2" font-size="8" font-weight="400" font-style="normal" 
>
</g>

<g fill="none" stroke="#000000" stroke-opacity="1" stroke-width="4" stroke-linecap="square" stroke-linejoin="bevel" transform="matrix(1.00002,0,0,1.00002,1758.71,434.533)"
font-family="MS Shell Dlg 2" font-size="8" font-weight="400" font-style="normal" 
>
<path vector-effect="none" fill-rule="evenodd" d="M0,127 L15,127 L15,-127 L0,-127"/>
<path vector-effect="none" fill-rule="evenodd" d="M0,127 L-15,127 L-15,-127 L0,-127"/>
</g>

<g fill="#000000" fill-opacity="0.0980392" stroke="none" transform="matrix(1.00002,0,0,1.00002,1758.71,434.533)"
font-family="MS Shell Dlg 2" font-size="8" font-weight="400" font-style="normal" 
>
<path vector-effect="none" fill-rule="evenodd" d="M0,127 L15,127 L15,-127 L0,-127 L0,127 L-15,127 L-15,-127 L0,-127"/>
</g>

<g fill="none" stroke="#646464" stroke-opacity="0.784314" stroke-width="0.5" stroke-linecap="square" stroke-linejoin="bevel" transform="matrix(1.00002,0,0,1.00002,1758.71,434.533)"
font-family="MS Shell Dlg 2" font-size="8" font-weight="400" font-style="normal" 
>
</g>

<g fill="none" stroke="#000000" stroke-opacity="1" stroke-width="1" stroke-linecap="square" stroke-linejoin="bevel" transform="matrix(1,0,0,1,0,0)"
font-family="MS Shell Dlg 2" font-size="8" font-weight="400" font-style="normal" 
>
</g>
</g>
</svg>
